<svg width="248" height="350" viewBox="0 0 248 350" fill="none" xmlns="http://www.w3.org/2000/svg">
<path d="M139.5 228.5C137.167 233.5 134.833 237 132.5 239C130.5 241 127.333 242 123 242H107L37.5 59H34.5L38.5 119.5L41 336.5C41 341.833 40 345.5 38 347.5C36.3333 349.167 32.8333 350 27.5 350H2.17557e-06V13.5C2.17557e-06 8.16666 0.833336 4.66666 2.5 3C4.5 0.999983 8.16667 -2.38419e-05 13.5 -2.38419e-05H47L111 163L122 204.5H125L136.5 163L199.5 13.5C201.5 8.83331 203.833 5.49998 206.5 3.49999C209.167 1.16665 213 -2.38419e-05 218 -2.38419e-05H248V336.5C248 341.833 247 345.5 245 347.5C243.333 349.167 239.833 350 234.5 350H208V119.5L212.5 59H209.5L139.5 228.5Z" fill="white"/>
</svg>
